<svg width="25" height="25" viewBox="0 0 25 25" fill="none" xmlns="http://www.w3.org/2000/svg">
<path d="M8.5625 23C7.29594 23 6.26562 21.9697 6.26562 20.7031C6.26562 19.4366 7.29594 18.4062 8.5625 18.4062C9.82906 18.4062 10.8594 19.4366 10.8594 20.7031C10.8594 21.9697 9.82906 23 8.5625 23ZM8.5625 19.0625C7.65786 19.0625 6.92188 19.7985 6.92188 20.7031C6.92188 21.6078 7.65786 22.3438 8.5625 22.3438C9.46714 22.3438 10.2031 21.6078 10.2031 20.7031C10.2031 19.7985 9.46714 19.0625 8.5625 19.0625Z" fill="black"/>
<path d="M16.4375 23C15.1709 23 14.1406 21.9697 14.1406 20.7031C14.1406 19.4366 15.1709 18.4062 16.4375 18.4062C17.7041 18.4062 18.7344 19.4366 18.7344 20.7031C18.7344 21.9697 17.7041 23 16.4375 23ZM16.4375 19.0625C15.5329 19.0625 14.7969 19.7985 14.7969 20.7031C14.7969 21.6078 15.5329 22.3438 16.4375 22.3438C17.3421 22.3438 18.0781 21.6078 18.0781 20.7031C18.0781 19.7985 17.3421 19.0625 16.4375 19.0625Z" fill="black"/>
<path d="M14.4688 20.375H10.5312V21.0312H14.4688V20.375Z" fill="black"/>
<path d="M6.26628 20.7271L4.97609 2.98438H2V2.32812H5.58641L6.92122 20.6792L6.26628 20.7271Z" fill="black"/>
<path d="M6.25263 16.4368L6.20913 15.7819L19.3427 14.8146L21.3769 5.60938H5.60938V4.95312H22.16L19.8437 15.4354L6.25263 16.4368Z" fill="black"/>
<circle cx="21" cy="6" r="4" fill="#D33131"/>
<path d="M20.1393 7V6.796L21.3033 5.656C21.4099 5.552 21.4899 5.46133 21.5433 5.384C21.5966 5.304 21.6326 5.22933 21.6513 5.16C21.6699 5.09067 21.6793 5.02533 21.6793 4.964C21.6793 4.80133 21.6233 4.67333 21.5113 4.58C21.4019 4.48667 21.2393 4.44 21.0233 4.44C20.8579 4.44 20.7113 4.46533 20.5833 4.516C20.4579 4.56667 20.3499 4.64533 20.2593 4.752L20.0553 4.576C20.1646 4.448 20.3046 4.34933 20.4753 4.28C20.6459 4.21067 20.8366 4.176 21.0473 4.176C21.2366 4.176 21.4006 4.20667 21.5393 4.268C21.6779 4.32667 21.7846 4.41333 21.8593 4.528C21.9366 4.64267 21.9753 4.77733 21.9753 4.932C21.9753 5.02267 21.9619 5.112 21.9353 5.2C21.9113 5.288 21.8659 5.38133 21.7993 5.48C21.7353 5.576 21.6406 5.68533 21.5153 5.808L20.4473 6.856L20.3673 6.744H22.1033V7H20.1393Z" fill="white"/>
</svg>
