<svg width="25" height="25" viewBox="0 0 25 25" fill="none" xmlns="http://www.w3.org/2000/svg">
<path d="M18.5 3C15.971 3 13.8116 4.42519 13 6.41309C12.1884 4.42519 10.029 3 7.5 3C4.05734 3 2 5.97137 2 8.84375C2 11.7962 3.83081 14.947 7.44156 18.2082C10.1015 20.6107 12.8006 22.1878 12.8274 22.2036L13 22.3036L13.1726 22.2036C13.1997 22.1878 15.8985 20.6107 18.5584 18.2082C22.1692 14.947 24 11.7962 24 8.84375C24 5.97137 21.9427 3 18.5 3ZM13 21.5051C11.6357 20.6722 2.6875 14.9721 2.6875 8.84375C2.6875 6.30928 4.48772 3.6875 7.5 3.6875C9.97981 3.6875 12.6562 5.39628 12.6562 8.15625H13.3438C13.3438 5.39628 16.0202 3.6875 18.5 3.6875C21.5123 3.6875 23.3125 6.30928 23.3125 8.84375C23.3125 14.9687 14.364 20.6718 13 21.5051Z" fill="black"/>
</svg>
