<svg width="103" height="87" viewBox="0 0 103 87" fill="none" xmlns="http://www.w3.org/2000/svg">
<path d="M41.754 12.8418C56.6117 12.8418 68.6938 24.9239 68.6938 39.7816H66.5168C66.5168 26.1212 55.4144 15.0187 41.754 15.0187C28.0936 15.0187 16.9912 26.1212 16.9912 39.7816C16.9912 53.442 28.0936 64.5444 41.754 64.5444V66.7343C24.3384 65.0757 14.8142 53.442 14.8142 39.7816C14.8142 24.9239 26.8963 12.8418 41.754 12.8418Z" fill="#9C918D"/>
<path d="M13.236 61.7679V63.9449H21.2907L19.4403 62.0944C9.75287 52.4614 7.41265 37.767 13.5625 25.5761L11.6033 24.5964C5.45339 36.8418 7.3038 51.4818 16.1749 61.7679H13.236Z" fill="#666666"/>
<path d="M69.8913 54.095L71.8505 55.0747C78.1093 42.7749 76.2589 28.0805 67.3334 17.7399H72.9934V15.563H62.2175L64.0679 17.4678C73.7554 27.1553 76.0956 41.9041 69.8913 54.095Z" fill="#666666"/>
<path d="M56.0675 11.6439L57.0471 9.68466C44.7473 3.42592 30.0529 5.27633 19.7668 14.2018V11.263H17.5898V19.3177L19.4403 17.4673C29.1277 7.77983 43.8765 5.43961 56.0675 11.6439Z" fill="#666666"/>
<path d="M42.8425 18.2292H40.6655V19.9708H42.8425V18.2292Z" fill="#666666"/>
<path d="M63.306 38.6931H61.5645V40.8701H63.306V38.6931Z" fill="#666666"/>
<path d="M42.8425 59.5913H40.6655V61.3329H42.8425V59.5913Z" fill="#666666"/>
<path d="M21.9437 38.6931H20.2021V40.8701H21.9437V38.6931Z" fill="#666666"/>
<path d="M44.7322 41.6908L46.3263 40.2082L44.1395 37.857L51.5519 30.963L50.0694 29.3689L42.6569 36.2629L32.0935 24.9051L30.4995 26.3877L41.0628 37.7455L38.7115 39.9323L40.1941 41.5264L42.5454 39.3396L44.7322 41.6908Z" fill="#666666"/>
<path d="M59.032 49.5846C58.503 48.7849 58.7224 47.7079 59.5221 47.1789C60.3217 46.6499 61.3987 46.8693 61.9277 47.6689L71.7868 62.572C72.3158 63.3716 72.0964 64.4487 71.2968 64.9776C70.4972 65.5066 69.4201 65.2872 68.8911 64.4876L59.032 49.5846Z" fill="#666666"/>
<path d="M58.5876 48.5897C58.5876 47.5974 59.3921 46.793 60.3844 46.793C61.3767 46.793 62.1811 47.5974 62.1811 48.5897V72.2041C62.1811 73.1964 61.3767 74.0009 60.3844 74.0009C59.3921 74.0009 58.5876 73.1964 58.5876 72.2041V48.5897Z" fill="#9C918D"/>
<path d="M80.1487 48.5292C80.1487 47.5369 80.9531 46.7324 81.9454 46.7324C82.9377 46.7324 83.7422 47.5369 83.7422 48.5292V72.1436C83.7422 73.1359 82.9377 73.9403 81.9454 73.9403C80.9531 73.9403 80.1487 73.1359 80.1487 72.1436V48.5292Z" fill="#666666"/>
<path d="M80.4785 47.4045C81.025 46.6288 82.0968 46.443 82.8725 46.9895C83.6482 47.5359 83.834 48.6077 83.2875 49.3834L72.204 65.1155C71.6576 65.8911 70.5858 66.0769 69.8101 65.5305C69.0344 64.984 68.8486 63.9122 69.3951 63.1365L80.4785 47.4045Z" fill="#666666"/>
<path d="M44.7271 50.3828H48.3205V72.2005C48.3205 73.1928 47.5161 73.9972 46.5238 73.9972C45.5315 73.9972 44.7271 73.1928 44.7271 72.2005V50.3828Z" fill="#666666"/>
<rect x="36" y="46.793" width="21.0476" height="3.5935" rx="1.79675" fill="#666666"/>
<path d="M83.7422 58.0488H93.2393C94.2316 58.0488 95.036 58.8533 95.036 59.8456C95.036 60.8379 94.2316 61.6423 93.2393 61.6423H83.7422V58.0488Z" fill="#666666"/>
<path d="M87.3357 46.752H94.7794C95.7717 46.752 96.5761 47.5564 96.5761 48.5487C96.5761 49.541 95.7717 50.3454 94.7794 50.3454H87.3357V46.752Z" fill="#9C918D"/>
<path d="M87.3357 69.8535H94.7794C95.7717 69.8535 96.5761 70.6579 96.5761 71.6503C96.5761 72.6426 95.7717 73.447 94.7794 73.447H87.3357V69.8535Z" fill="#9C918D"/>
</svg>
